<svg width="621" height="166" viewBox="0 0 621 166" fill="none" xmlns="http://www.w3.org/2000/svg" role="img">
<rect width="620.365" height="165.883" rx="82.9414" fill="#FDF6F8"/>
<path d="M78.1974 44.3407C78.1974 45.2367 78.6028 46.0047 79.4134 46.6447C80.2241 47.242 81.2908 47.7967 82.6134 48.3087C83.9361 48.778 85.3868 49.2687 86.9654 49.7807C88.5868 50.2927 90.1868 50.9113 91.7654 51.6367C93.3441 52.362 94.7948 53.2793 96.1174 54.3887C97.4401 55.4553 98.5068 56.7993 99.3174 58.4207C100.128 60.042 100.533 62.0047 100.533 64.3087C100.533 67.722 99.6374 70.5167 97.8454 72.6927C96.0961 74.8687 93.7281 76.49 90.7414 77.5567C87.7974 78.5807 84.5334 79.0927 80.9494 79.0927C78.5174 79.0927 76.0214 78.858 73.4614 78.3887C70.9441 77.962 68.4481 77.3007 65.9734 76.4047L66.2934 62.6447H73.7814L75.4454 70.0047L74.2934 68.0207C75.3601 68.5327 76.5334 68.938 77.8134 69.2367C79.0934 69.4927 80.3308 69.6207 81.5254 69.6207C82.6774 69.6207 83.7228 69.4927 84.6614 69.2367C85.6001 68.9807 86.3468 68.5967 86.9014 68.0847C87.4561 67.53 87.7334 66.8473 87.7334 66.0367C87.7334 65.0127 87.3281 64.1807 86.5174 63.5407C85.7494 62.9007 84.7041 62.346 83.3814 61.8767C82.0588 61.3647 80.6081 60.874 79.0294 60.4047C77.4508 59.9353 75.8721 59.3593 74.2934 58.6767C72.7148 57.994 71.2641 57.1193 69.9414 56.0527C68.6188 54.986 67.5521 53.6633 66.7414 52.0847C65.9734 50.4633 65.5894 48.458 65.5894 46.0687C65.5894 42.7833 66.3574 40.0953 67.8934 38.0047C69.4721 35.8713 71.5841 34.2927 74.2294 33.2687C76.9174 32.202 79.9254 31.6687 83.2534 31.6687C85.6428 31.6687 88.1601 31.9247 90.8054 32.4367C93.4508 32.906 96.0961 33.6313 98.7414 34.6127L97.9094 47.0927H90.2294L88.5014 40.8207L89.7814 42.0367C88.8854 41.738 87.9468 41.5247 86.9654 41.3967C86.0268 41.226 85.0668 41.1407 84.0854 41.1407C83.0188 41.1407 82.0374 41.2473 81.1414 41.4607C80.2454 41.674 79.5201 42.0153 78.9654 42.4847C78.4534 42.954 78.1974 43.5727 78.1974 44.3407ZM113.215 78.0687V71.6687L119.935 69.4287L117.695 72.6287V39.9887L120.255 41.9087H111.615L114.431 39.4767L112.383 47.5407H104.703V32.6287H143.807V47.5407H136.127L134.207 39.9887L136.895 41.9087H128.255L130.815 39.9887V72.6287L128.703 69.4287L135.295 71.6687V78.0687H113.215ZM175.554 64.5647H183.234L183.106 78.0687H148.738V71.6687L154.178 69.4927L152.578 71.9887V39.0287L154.114 41.4607L148.738 39.3487V32.9487L165.378 32.6287H182.466V45.5567H174.786L173.314 40.2447L175.618 41.9087H163.778L165.698 39.9887V52.4687L163.778 50.5487H177.154V59.5087H163.778L165.698 57.2687V70.7087L163.778 68.7887H176.386L174.018 70.7087L175.554 64.5647ZM209.007 63.2847H204.783L207.343 61.3647V71.9887L205.615 69.6207L212.463 71.6687V78.0687H190.383V71.6687L196.143 69.4287L194.223 71.9887V38.9007L196.463 41.5887L190.383 39.3487V32.9487L207.599 32.6287H212.015C215.812 32.6287 218.884 33.3113 221.231 34.6767C223.62 35.9993 225.37 37.77 226.479 39.9887C227.588 42.2073 228.143 44.6607 228.143 47.3487C228.143 50.2073 227.482 52.8527 226.159 55.2847C224.879 57.7167 222.831 59.658 220.015 61.1087C217.199 62.5593 213.53 63.2847 209.007 63.2847ZM209.903 41.8447H205.423L207.343 39.9247V55.9247L204.783 54.0047H209.007C210.97 54.0047 212.42 53.4073 213.359 52.2127C214.34 51.018 214.831 49.482 214.831 47.6047C214.831 45.8127 214.404 44.4047 213.551 43.3807C212.74 42.3567 211.524 41.8447 209.903 41.8447ZM269.113 79.0287C264.846 79.0287 261.092 78.1327 257.849 76.3407C254.606 74.5487 252.089 71.9033 250.297 68.4047C248.505 64.906 247.609 60.5967 247.609 55.4767C247.609 50.4847 248.484 46.218 250.233 42.6767C251.982 39.0927 254.521 36.362 257.849 34.4847C261.22 32.6073 265.273 31.6687 270.009 31.6687C272.654 31.6687 275.364 31.9673 278.137 32.5647C280.953 33.162 283.79 34.058 286.649 35.2527L285.881 48.1167H278.201L276.217 41.1407L278.201 42.7407C276.964 42.3567 275.769 42.058 274.617 41.8447C273.508 41.6313 272.441 41.5247 271.417 41.5247C269.326 41.5247 267.556 42.0153 266.105 42.9967C264.654 43.9353 263.545 45.4073 262.777 47.4127C262.052 49.418 261.689 52.0207 261.689 55.2207C261.689 59.4447 262.393 62.8153 263.801 65.3327C265.252 67.85 267.534 69.1087 270.649 69.1087C271.374 69.1087 272.164 69.0447 273.017 68.9167C273.87 68.746 274.766 68.5113 275.705 68.2127L274.233 70.7727V60.3407L276.217 62.4527L270.393 60.9167V54.2607L290.233 53.9407V60.6607L285.241 62.4527L286.393 60.3407V75.2527C283.278 76.5327 280.249 77.4713 277.305 78.0687C274.361 78.7087 271.63 79.0287 269.113 79.0287ZM316.109 79.0287C311.672 79.0287 307.917 78.154 304.845 76.4047C301.816 74.6127 299.512 72.01 297.933 68.5967C296.397 65.1407 295.629 60.9593 295.629 56.0527C295.629 52.042 296.12 48.522 297.101 45.4927C298.125 42.4207 299.597 39.8607 301.517 37.8127C303.437 35.7647 305.741 34.2287 308.429 33.2047C311.16 32.1807 314.253 31.6687 317.709 31.6687C321.165 31.6687 324.194 32.1807 326.797 33.2047C329.442 34.2287 331.64 35.722 333.389 37.6847C335.181 39.6047 336.525 41.9727 337.421 44.7887C338.36 47.6047 338.829 50.8047 338.829 54.3887C338.829 59.4233 337.912 63.7967 336.077 67.5087C334.285 71.178 331.704 74.0153 328.333 76.0207C324.962 78.026 320.888 79.0287 316.109 79.0287ZM317.069 69.1087C318.69 69.1087 320.056 68.7247 321.165 67.9567C322.317 67.1887 323.192 65.7807 323.789 63.7327C324.429 61.6847 324.749 58.7407 324.749 54.9007C324.749 51.4447 324.472 48.7567 323.917 46.8367C323.405 44.874 322.594 43.5087 321.485 42.7407C320.376 41.9727 318.925 41.5887 317.133 41.5887C315.512 41.5887 314.146 41.9727 313.037 42.7407C311.928 43.466 311.096 44.8313 310.541 46.8367C309.986 48.842 309.709 51.7647 309.709 55.6047C309.709 58.9753 309.944 61.642 310.413 63.6047C310.925 65.5673 311.714 66.9753 312.781 67.8287C313.848 68.682 315.277 69.1087 317.069 69.1087ZM386.523 72.3727L383.259 69.4287L388.251 71.6687V78.0687H368.219V71.6687L372.571 69.6847L371.419 71.4127L369.691 64.9487L371.547 66.5487H357.211L358.555 65.1407L356.699 71.1567L356.443 69.9407L360.283 71.6687V78.0687H342.491V71.6687L347.355 69.5567L344.475 72.0527L359.067 32.7567L372.571 32.4367L386.523 72.3727ZM360.347 59.2527L359.579 57.5887H369.499L368.283 59.5727L363.355 39.3487L366.427 39.4127L360.347 59.2527ZM418.715 62.3887H426.395V78.0687H392.795V71.6687L397.979 69.6207L396.635 71.9887V39.0287L397.979 41.3967L392.795 39.3487V32.9487L413.787 32.6287V39.0287L408.539 41.3967L409.755 39.0287V70.7087L407.835 68.7887H418.651L416.987 70.7727L418.715 62.3887Z" fill="#3A454E"/>
<path d="M81.2774 136.876C78.2534 136.876 75.4634 136.156 72.9074 134.716C70.3874 133.24 68.3534 131.044 66.8054 128.128C65.2934 125.176 64.5374 121.504 64.5374 117.112C64.5374 112.9 65.2754 109.282 66.7514 106.258C68.2274 103.234 70.3154 100.93 73.0154 99.346C75.7154 97.726 78.9194 96.916 82.6274 96.916C84.6434 96.916 86.6594 97.168 88.6754 97.672C90.6914 98.14 92.8874 98.86 95.2634 99.832L94.6694 110.794H88.1894L86.5154 104.8L88.3514 106.42C87.3074 106.024 86.3534 105.736 85.4894 105.556C84.6614 105.376 83.8694 105.286 83.1134 105.286C81.4934 105.286 80.1974 105.7 79.2254 106.528C78.2534 107.356 77.5334 108.562 77.0654 110.146C76.6334 111.694 76.4174 113.584 76.4174 115.816C76.4174 118.66 76.7234 121 77.3354 122.836C77.9834 124.636 78.8834 125.968 80.0354 126.832C81.1874 127.66 82.5194 128.074 84.0314 128.074C85.1834 128.074 86.4254 127.84 87.7574 127.372C89.0894 126.868 90.4754 126.13 91.9154 125.158L95.8574 131.422C93.4814 133.258 91.0514 134.626 88.5674 135.526C86.0834 136.426 83.6534 136.876 81.2774 136.876ZM135.339 131.26L132.585 128.776L136.797 130.666V136.066H119.895V130.666L123.567 128.992L122.595 130.45L121.137 124.996L122.703 126.346H110.607L111.741 125.158L110.175 130.234L109.959 129.208L113.199 130.666V136.066H98.187V130.666L102.291 128.884L99.861 130.99L112.173 97.834L123.567 97.564L135.339 131.26ZM113.253 120.19L112.605 118.786H120.975L119.949 120.46L115.791 103.396L118.383 103.45L113.253 120.19ZM160.881 122.836H167.361V136.066H139.011V130.666L143.385 128.938L142.251 130.936V103.126L143.385 105.124L139.011 103.396V97.996L156.723 97.726V103.126L152.295 105.124L153.321 103.126V129.856L151.701 128.236H160.827L159.423 129.91L160.881 122.836ZM186.683 136.876C183.659 136.876 180.869 136.156 178.313 134.716C175.793 133.24 173.759 131.044 172.211 128.128C170.699 125.176 169.943 121.504 169.943 117.112C169.943 112.9 170.681 109.282 172.157 106.258C173.633 103.234 175.721 100.93 178.421 99.346C181.121 97.726 184.325 96.916 188.033 96.916C190.049 96.916 192.065 97.168 194.081 97.672C196.097 98.14 198.293 98.86 200.669 99.832L200.075 110.794H193.595L191.921 104.8L193.757 106.42C192.713 106.024 191.759 105.736 190.895 105.556C190.067 105.376 189.275 105.286 188.519 105.286C186.899 105.286 185.603 105.7 184.631 106.528C183.659 107.356 182.939 108.562 182.471 110.146C182.039 111.694 181.823 113.584 181.823 115.816C181.823 118.66 182.129 121 182.741 122.836C183.389 124.636 184.289 125.968 185.441 126.832C186.593 127.66 187.925 128.074 189.437 128.074C190.589 128.074 191.831 127.84 193.163 127.372C194.495 126.868 195.881 126.13 197.321 125.158L201.263 131.422C198.887 133.258 196.457 134.626 193.973 135.526C191.489 136.426 189.059 136.876 186.683 136.876ZM225.3 97.996L242.85 97.726V103.126L238.476 105.178L239.61 102.532V120.676C239.61 122.944 239.376 124.96 238.908 126.724C238.44 128.488 237.738 130.018 236.802 131.314C235.866 132.574 234.732 133.618 233.4 134.446C232.068 135.274 230.538 135.886 228.81 136.282C227.082 136.678 225.174 136.876 223.086 136.876C219.918 136.876 217.326 136.498 215.31 135.742C213.294 134.95 211.728 133.942 210.612 132.718C209.496 131.458 208.704 130.126 208.236 128.722C207.768 127.318 207.48 125.986 207.372 124.726C207.264 123.43 207.21 122.35 207.21 121.486V102.586L208.344 105.124L203.97 103.396V97.996L221.52 97.726V103.126L217.308 105.178L218.28 102.586V121.486C218.28 122.458 218.316 123.322 218.388 124.078C218.496 124.834 218.64 125.5 218.82 126.076C219.036 126.616 219.324 127.066 219.684 127.426C220.08 127.786 220.566 128.056 221.142 128.236C221.718 128.416 222.42 128.506 223.248 128.506C224.112 128.506 224.832 128.416 225.408 128.236C226.02 128.02 226.524 127.714 226.92 127.318C227.352 126.922 227.676 126.418 227.892 125.806C228.144 125.194 228.306 124.474 228.378 123.646C228.486 122.782 228.54 121.792 228.54 120.676V102.532L229.404 105.016L225.3 103.396V97.996ZM267.816 122.836H274.296V136.066H245.946V130.666L250.32 128.938L249.186 130.936V103.126L250.32 105.124L245.946 103.396V97.996L263.658 97.726V103.126L259.23 105.124L260.256 103.126V129.856L258.636 128.236H267.762L266.358 129.91L267.816 122.836ZM313.95 131.26L311.196 128.776L315.408 130.666V136.066H298.506V130.666L302.178 128.992L301.206 130.45L299.748 124.996L301.314 126.346H289.218L290.352 125.158L288.786 130.234L288.57 129.208L291.81 130.666V136.066H276.798V130.666L280.902 128.884L278.472 130.99L290.784 97.834L302.178 97.564L313.95 131.26ZM291.864 120.19L291.216 118.786H299.586L298.56 120.46L294.402 103.396L296.994 103.45L291.864 120.19ZM320.732 136.066V130.666L326.402 128.776L324.512 131.476V103.936L326.672 105.556H319.382L321.758 103.504L320.03 110.308H313.55V97.726H346.544V110.308H340.064L338.444 103.936L340.712 105.556H333.422L335.582 103.936V131.476L333.8 128.776L339.362 130.666V136.066H320.732ZM366.31 136.876C362.566 136.876 359.398 136.138 356.806 134.662C354.25 133.15 352.306 130.954 350.974 128.074C349.678 125.158 349.03 121.63 349.03 117.49C349.03 114.106 349.444 111.136 350.272 108.58C351.136 105.988 352.378 103.828 353.998 102.1C355.618 100.372 357.562 99.076 359.83 98.212C362.134 97.348 364.744 96.916 367.66 96.916C370.576 96.916 373.132 97.348 375.328 98.212C377.56 99.076 379.414 100.336 380.89 101.992C382.402 103.612 383.536 105.61 384.292 107.986C385.084 110.362 385.48 113.062 385.48 116.086C385.48 120.334 384.706 124.024 383.158 127.156C381.646 130.252 379.468 132.646 376.624 134.338C373.78 136.03 370.342 136.876 366.31 136.876ZM367.12 128.506C368.488 128.506 369.64 128.182 370.576 127.534C371.548 126.886 372.286 125.698 372.79 123.97C373.33 122.242 373.6 119.758 373.6 116.518C373.6 113.602 373.366 111.334 372.898 109.714C372.466 108.058 371.782 106.906 370.846 106.258C369.91 105.61 368.686 105.286 367.174 105.286C365.806 105.286 364.654 105.61 363.718 106.258C362.782 106.87 362.08 108.022 361.612 109.714C361.144 111.406 360.91 113.872 360.91 117.112C360.91 119.956 361.108 122.206 361.504 123.862C361.936 125.518 362.602 126.706 363.502 127.426C364.402 128.146 365.608 128.506 367.12 128.506ZM389.299 136.066V130.666L393.835 128.884L392.539 130.936V103.18L394.429 105.394L389.299 103.396V97.996L404.041 97.726H408.253C412.825 97.726 416.263 98.68 418.567 100.588C420.907 102.496 422.077 105.232 422.077 108.796C422.077 111.892 421.141 114.484 419.269 116.572C417.433 118.624 414.445 119.92 410.305 120.46L410.413 119.218C411.817 119.182 412.969 119.326 413.869 119.65C414.805 119.938 415.561 120.37 416.137 120.946C416.749 121.522 417.271 122.206 417.703 122.998L421.753 130.45L418.729 128.56L424.021 130.666V136.066H413.005L408.199 125.914C407.623 124.654 407.173 123.718 406.849 123.106C406.525 122.494 406.147 122.098 405.715 121.918C405.319 121.738 404.671 121.666 403.771 121.702L401.881 121.756L403.609 120.298V130.936L402.259 128.83L406.849 130.666V136.066H389.299ZM403.609 116.896L401.881 114.196H405.661C407.461 114.196 408.775 113.818 409.603 113.062C410.431 112.27 410.845 111.1 410.845 109.552C410.845 108.328 410.521 107.356 409.873 106.636C409.261 105.88 408.253 105.502 406.849 105.502H401.881L403.609 103.882V116.896Z" fill="#3A454E"/>
<path d="M612.236 111.191C612.237 117.52 609.94 120.238 603.859 121.084C602.381 121.29 601.441 121.585 601.739 123.323C601.806 123.714 601.793 124.253 601.575 124.539C599.174 127.687 600.779 130.15 602.944 132.448C606.21 135.912 607.849 139.834 607.263 144.71C607.038 146.588 606.794 148.296 605.648 149.841C604.804 150.977 604.193 152.293 603.305 153.389C602.096 154.879 601.571 157.546 599.171 157.277C596.446 156.972 593.982 155.515 591.867 153.707C590.884 152.867 590.89 151.674 591.332 150.465C591.848 149.057 592.192 147.58 592.778 146.204C593.353 144.854 593.178 143.801 591.901 142.765C590.808 144.053 590.959 145.68 590.696 147.131C589.94 151.311 589.305 155.513 588.605 159.704C588.305 161.5 587.283 162.541 585.401 162.595C583.066 162.663 580.727 162.821 578.395 162.746C575.985 162.669 575.429 160.86 575.4 158.889C575.337 154.715 575.313 150.538 575.403 146.365C575.441 144.585 574.958 143.573 573.055 143.235C570.928 142.859 568.834 142.253 566.762 141.625C565.355 141.199 564.553 141.678 563.958 142.918C563.055 144.799 562.095 146.653 561.149 148.513C560.714 149.367 560.632 150.189 560.896 151.158C561.597 153.727 562.201 156.325 562.777 158.927C563.219 160.928 562.385 162.324 560.34 162.468C553.342 162.959 546.331 162.871 539.327 162.516C537.691 162.433 536.825 161.276 536.338 159.855C535.581 157.647 534.93 155.403 534.163 153.199C533.774 152.08 533.986 151.068 534.397 150.041C535.731 146.711 537.045 143.372 538.41 140.054C539.125 138.316 539.519 136.578 538.784 134.188C535.497 136.237 531.934 136.64 528.254 136.476C527.116 136.426 526.811 137.469 526.591 138.375C525.942 141.046 525.355 143.732 524.681 146.397C524.396 147.526 524.782 148.309 525.581 149.054C528.742 152 529.354 155.776 529.041 159.848C528.921 161.416 528.102 162.352 526.545 162.463C520.377 162.901 514.204 162.857 508.033 162.505C506.174 162.399 505.418 161.156 505.289 159.504C505.172 158.009 505.219 156.5 505.228 154.998C505.245 152.245 505.099 149.57 504.27 146.86C503.128 143.133 503.33 139.283 504.579 135.537C505.236 133.567 505.866 131.59 506.508 129.616C506.287 129.411 506.066 129.207 505.845 129.003C501.635 133.428 497.431 137.859 493.21 142.275C491.999 143.542 490.81 144.846 489.483 145.984C487.957 147.291 487.337 148.815 487.459 150.821C487.764 155.813 484.652 159.032 481.274 161.978C480.107 162.997 478.534 162.788 477.389 161.656C473.175 157.487 469 153.278 464.836 149.059C463.329 147.533 463.479 145.929 464.853 144.394C465.464 143.711 466.147 143.092 466.803 142.45C469.356 139.957 471.941 137.602 472.519 133.684C472.887 131.187 474.752 129.263 476.554 127.475C482.005 122.063 487.415 116.609 492.9 111.231C494.076 110.078 494.59 108.993 494.193 107.287C493.363 103.723 492.769 100.104 492.071 96.5092C491.855 95.3962 491.133 94.5768 490.436 93.7401C486.266 88.7378 482.11 83.725 477.938 78.725C473.149 72.9855 472.298 66.7921 475.9 60.1651C478.49 55.3989 481.175 50.6824 483.897 45.9897C484.495 44.9571 484.672 44.1088 484.223 42.9615C480.583 33.6767 483.927 25.5819 490.74 19.93C491.648 19.1769 492.084 18.484 492.252 17.2943C493.257 10.1597 497.83 6.2865 505.061 6.28416C508.652 6.283 512.243 6.25843 515.833 6.29522C519.722 6.33507 522.355 8.263 523.548 11.8608C524.635 15.1431 523.653 18.6161 520.672 20.7095C519.207 21.7383 518.857 22.8937 518.899 24.4963C518.95 26.412 518.97 28.3454 518.773 30.2472C518.385 33.9929 516.519 36.6457 512.724 37.6586C511.984 37.8561 511.128 37.9974 511.175 38.9718C511.228 40.0738 512.201 39.8742 512.904 39.911C514.457 39.9926 515.498 40.8242 516.439 41.9863C519.699 46.0076 523.037 49.9647 526.292 53.9892C527.385 55.3403 528.648 56.2282 530.367 56.667C533.514 57.4705 536.653 58.3477 539.721 59.4075C544.241 60.9683 548.882 60.9747 553.561 60.9146C557.003 60.8704 557.777 61.5596 557.608 65.0192C557.382 69.6647 558.25 74.149 559.212 78.6255C559.878 81.7287 559.823 84.7645 558.752 87.7278C558.244 89.1319 558.476 90.2151 559.237 91.4515C564.105 99.3639 570.771 105.196 579.159 109.161C581.039 110.05 582.041 109.697 582.838 107.843C583.594 106.082 584.641 104.446 585.39 102.683C586.299 100.544 587.876 99.671 590.104 99.6873C592.526 99.7051 594.948 99.7112 597.369 99.6742C599.782 99.6374 601.626 100.494 602.449 102.888C603.036 104.598 604.187 105.224 605.91 104.995C606.074 104.974 606.244 104.993 606.411 104.994C612.178 105.022 612.234 105.078 612.236 111.191ZM523.913 89.3852C524.893 91.5979 525.879 93.8081 526.853 96.0238C529.13 101.204 531.89 106.243 531.725 112.157C531.664 114.351 531.539 116.543 531.423 119.206C535.325 116.366 539.34 114.506 543.648 115.635C547.026 116.52 550.036 116.028 553.3 115.568C559.677 114.669 566.137 115.341 572.559 115.174C573.621 115.147 574.899 115.549 575.674 114.126C575.183 113.781 574.809 113.456 574.382 113.226C565.645 108.528 558.659 102.006 553.717 93.3644C553.234 92.5196 552.567 92.0252 551.692 91.6202C545.24 88.6359 541.846 83.5924 541.772 76.4518C541.756 74.8487 541.233 74.2172 539.592 74.2352C534.249 74.2939 528.903 74.2877 523.56 74.2168C522.063 74.197 521.455 74.6866 521.45 76.2157C521.436 80.639 521.137 85.0954 523.913 89.3852ZM562.243 134.594C567.408 135.916 572.555 137.312 577.745 138.526C580.205 139.101 581.239 140.422 581.183 142.922C581.094 146.844 581.155 150.77 581.188 154.694C581.195 155.418 581.139 156.346 582.143 156.481C583.195 156.622 583.301 155.686 583.437 154.978C583.941 152.364 584.539 149.756 584.83 147.115C585.32 142.676 586.475 138.671 590.374 135.924C593.136 133.978 594.259 131.183 594.638 127.848C594.824 126.213 594.266 125.743 592.993 125.421C589.014 124.418 585.541 122.465 582.656 119.579C581.446 118.369 580.467 118.329 579.223 119.352C577.309 120.924 575.055 121.259 572.642 121.229C567.382 121.163 562.121 121.206 556.86 121.214C548.663 121.228 544.791 124.969 544.95 133.133C545.034 137.406 544.391 141.405 542.527 145.254C541.621 147.125 540.817 149.077 540.244 151.072C539.184 154.762 541.474 157.19 545.253 156.449C545.53 155.426 545.004 154.504 544.669 153.611C544.227 152.43 544.204 151.344 544.765 150.233C546.381 147.03 547.831 143.729 549.65 140.645C553.196 134.633 556.567 133.038 562.243 134.594ZM499.625 105.682C501.292 109.812 500.193 113.01 496.625 115.664C494.77 117.044 493.256 118.888 491.618 120.553C487.523 124.715 483.319 128.781 479.402 133.106C476.635 136.16 476.915 137.2 480.132 139.664C480.994 140.324 481.901 140.931 482.709 141.65C483.884 142.697 484.799 142.554 485.903 141.442C494.131 133.148 502.453 124.946 510.641 116.613C513.426 113.778 514.893 110.241 514.698 106.176C514.386 99.6751 511.079 94.1064 508.895 88.2037C508.355 86.7449 506.591 86.8656 505.583 88.131C503.805 90.364 501.717 92.2856 499.675 94.2416C498.247 95.6092 497.752 96.9171 498.344 98.8854C498.962 100.943 499.159 103.128 499.625 105.682ZM511.181 46.9354C511.035 46.1737 510.564 45.7434 509.801 45.7403C505.99 45.7247 502.179 45.7332 498.126 45.7332C499.221 48.744 500.244 51.317 499.574 54.2909C498.717 58.0952 496.255 60.9884 494.432 64.2396C493.697 65.5507 493.495 66.5849 494.4 67.8918C495.682 69.7417 496.698 71.7777 497.997 73.6139C499.811 76.1774 500.561 80.069 503.444 81.1324C506.322 82.1938 509.867 81.4354 513.119 81.4959C514.615 81.5237 515.729 81.2868 515.709 79.351C515.69 77.4921 514.786 76.796 513.091 76.7885C510.92 76.7789 508.749 76.8018 506.578 76.7701C503.154 76.7202 501.996 75.0329 503.345 71.9542C504.09 70.2572 504.593 68.5 504.975 66.708C506.146 61.2029 506.124 61.1578 511.719 60.9221C513.214 60.8591 513.927 60.4312 513.598 58.8404C512.806 55.0081 512.041 51.1702 511.181 46.9354ZM512.971 128.501C511.992 131.426 511.036 134.358 510.027 137.273C509.212 139.629 509.252 142.033 509.541 144.448C509.676 145.577 510.061 146.433 511.493 146.601C518.354 147.407 518.78 147.139 520.246 140.401C520.299 140.156 520.353 139.911 520.428 139.673C521.457 136.419 522.287 133.214 518.544 130.989C518.344 130.87 518.215 130.612 518.087 130.399C517.051 128.671 515.005 127.211 516.024 124.851C517.111 122.331 519.552 123.214 521.541 123.048C521.956 123.013 522.375 123.024 522.792 123.019C523.664 123.008 524.211 122.533 524.448 121.745C526.029 116.477 526.952 111.142 524.788 105.845C522.516 100.288 520.023 94.8202 517.583 89.3327C517.21 88.4938 516.916 87.3511 515.277 87.7371C516.207 91.4045 517.71 94.8166 519.006 98.2938C521.247 104.31 521.341 110.35 518.133 115.932C515.896 119.824 514.522 123.961 512.971 128.501ZM481.082 62.6191C479.041 66.1488 478.526 69.8839 481.066 73.2067C485.213 78.6336 489.729 83.7782 494.082 89.0476C494.892 90.0276 495.625 90.0111 496.599 89.1702C499.014 87.0854 499.15 86.4608 497.445 83.7157C494.499 78.9713 491.657 74.1583 488.572 69.5055C487.024 67.1701 486.989 65.2418 488.517 62.8768C490.452 59.8807 492.575 56.953 493.791 53.5432C494.545 51.4294 493.914 49.6803 491.923 48.7096C489.838 47.6934 488.684 49.1373 487.77 50.7444C485.587 54.5846 483.432 58.4408 481.082 62.6191ZM602.487 110.769C600.351 110.722 599.129 109.451 598.431 107.608C597.783 105.899 596.663 105.407 594.829 105.251C591.619 104.978 589.613 105.99 588.585 109.104C588.12 110.513 587.304 111.813 586.593 113.133C586.038 114.165 586.144 115.009 587.023 115.808C589.094 117.69 591.441 119.053 594.135 119.838C595.14 120.13 595.849 119.885 595.996 118.843C596.467 115.496 598.851 115.137 601.523 115.218C602.976 115.262 604.313 115.019 605.567 114.206C606.523 113.585 606.589 112.759 606.416 111.814C606.235 110.824 605.427 110.822 604.669 110.793C604.086 110.771 603.502 110.783 602.487 110.769ZM527.197 68.484C530.697 68.4764 534.197 68.4262 537.695 68.4778C539.731 68.5078 540.577 67.6273 540.34 65.4488C536.166 64.2658 532.026 63.0497 527.861 61.9297C525.696 61.3478 523.882 60.3916 522.531 58.5106C521.503 57.0801 520.228 55.8269 518.632 54.0016C519.018 56.3608 519.272 57.9896 519.552 59.614C519.834 61.2499 520.167 62.8772 520.43 64.5159C520.917 67.5436 521.627 68.2206 524.721 68.4516C525.384 68.5012 526.053 68.4752 527.197 68.484ZM513.524 16.4964C513.941 16.497 514.36 16.5232 514.775 16.4936C516.279 16.3863 518.094 16.4507 518.102 14.3578C518.11 12.1653 516.327 12.0778 514.663 12.0804C511.158 12.0859 507.654 12.0997 504.149 12.0832C502.16 12.0738 500.518 12.8639 499.411 14.4425C496.876 18.0554 498.319 21.9947 498.006 26.248C499.29 25.6395 499.459 25.077 499.728 24.577C504.588 15.5458 501.71 16.5765 513.524 16.4964ZM491.008 28.1026C488.952 31.1989 487.866 34.4971 488.857 38.2438C489.055 38.9891 489.232 39.8438 490.141 39.8623C493.239 39.9252 496.339 39.8863 499.91 39.8863C497.57 35.2612 495.013 31.5842 492.656 27.7916C492.24 27.1218 491.678 27.3316 491.008 28.1026ZM513.11 23.5565C511.054 21.628 507.542 22.049 506.312 24.3983C505.466 26.0145 504.597 27.6268 503.886 29.3034C502.895 31.638 502.89 33.8845 505.075 36.1473C505.19 32.6601 507.209 31.9069 509.83 32.019C512.168 32.1189 513.175 30.9542 513.169 28.7216C513.165 27.1451 513.161 25.5685 513.11 23.5565ZM473.305 144.094C472.757 145.288 470.076 145.78 471.572 147.544C473.966 150.367 476.784 152.832 479.406 155.431C481.443 153.743 482.432 150.423 481.608 148.423C481.124 147.252 475.298 143.076 474.327 143.266C474.039 143.322 473.805 143.656 473.305 144.094ZM537.042 122.533C533.559 125.369 530.128 128.293 525.03 128.865C530.623 133.707 541.121 128.204 541.634 121.532C540.065 121.038 538.739 121.813 537.042 122.533ZM552.657 147.186C552.084 148.386 551.576 149.624 550.923 150.779C549.771 152.817 550.766 154.649 551.814 156.106C552.756 157.416 554.501 156.832 556.49 156.275C553.067 150.439 556.017 145.381 558.517 140.25C555.517 141.704 554.084 144.208 552.657 147.186ZM519.731 152.407C517.323 152.402 514.914 152.397 512.506 152.393C511.465 152.39 510.959 152.94 511.033 153.948C511.106 154.947 510.547 156.512 512.053 156.627C515.708 156.905 519.402 157.139 523.322 156.379C522.665 154.421 521.901 153.05 519.731 152.407ZM553.819 83.5601C553.936 80.9944 553.675 78.5034 552.558 75.9544C550.907 76.8839 549.33 76.7646 547.846 76.6953C546.897 79.5559 549.923 83.9007 551.741 84.9301C552.938 85.6082 553.627 85.3833 553.819 83.5601ZM597.331 136.941C595.762 138.081 596.418 139.228 597.378 140.296C599.313 142.45 599.677 144.772 598.475 147.431C598.1 148.262 597.412 149.151 597.936 150.229C601.1 147.892 602.738 143.084 601.022 139.859C600.371 138.636 600.317 135.93 597.331 136.941ZM547.147 70.2041C547.46 70.3096 547.776 70.4101 548.087 70.5216C549.861 71.1562 551.259 70.6538 551.821 68.8676C552.227 67.5753 551.648 66.6896 550.066 66.5736C547.325 66.3728 546.025 67.0206 545.88 68.8324C545.819 69.5837 546.237 69.8671 547.147 70.2041ZM514.8 67.3897C513.795 66.2463 512.415 66.3196 511.4 66.9548C510.079 67.7815 510.347 69.352 510.369 70.695C514.661 71.7014 515.415 71.1963 514.8 67.3897Z" fill="#0089DE"/>
</svg>
